<svg width="281" height="265" viewBox="0 0 281 265" fill="none" xmlns="http://www.w3.org/2000/svg">
<g clip-path="url(#clip0_1039_12546)">
<circle cx="245" cy="133" r="35" stroke="#171321" stroke-width="2" stroke-linecap="square"/>
<path d="M211.143 136.107C232.572 152.892 246.011 156.493 272.962 152.671" stroke="#171321" stroke-width="2" stroke-linecap="square"/>
<path d="M280.193 132.229C253.736 133.537 240.254 137.967 218.179 152.609" stroke="#171321" stroke-width="2" stroke-linecap="square"/>
<path d="M239.256 166.416C256.345 143.852 260.115 129.784 256.597 101.699" stroke="#171321" stroke-width="2" stroke-linecap="square"/>
<path d="M217.354 112.925C244.305 109.103 257.744 112.704 279.174 129.489" stroke="#171321" stroke-width="2" stroke-linecap="square"/>
<circle cx="257.803" cy="116.516" r="6" fill="#FF9D73" stroke="#171321" stroke-width="2" stroke-linecap="square"/>
<circle cx="247.968" cy="153.221" r="6" fill="#FF9D73" stroke="#171321" stroke-width="2" stroke-linecap="square"/>
<circle cx="255.348" cy="135.348" r="6" fill="#6FDAC9" stroke="#171321" stroke-width="2" stroke-linecap="square"/>
<circle cx="226.977" cy="146.561" r="6" fill="#6FDAC9" stroke="#171321" stroke-width="2" stroke-linecap="square"/>
</g>
<path d="M11.8259 149.019C9.43657 145.413 7.88407 141.319 7.28215 137.035C6.68023 132.752 7.04414 128.388 8.34723 124.264C9.65032 120.139 11.8596 116.358 14.8132 113.198C17.7667 110.038 21.3898 107.578 25.4171 106" stroke="#171321" stroke-width="2" stroke-linecap="square"/>
<path d="M56 162L69 162" stroke="#171321" stroke-width="2" stroke-linecap="square"/>
<path d="M65 157L70 162L65 167" stroke="#171321" stroke-width="2" stroke-linecap="square"/>
<path d="M38 109L33 104L38 99" stroke="#171321" stroke-width="2" stroke-linecap="square"/>
<path d="M33.8807 104.078C37.7681 103.793 41.673 104.294 45.3622 105.553C49.0513 106.811 52.4489 108.8 55.3519 111.401C58.255 114.002 60.6039 117.162 62.2583 120.691C63.9126 124.221 64.8386 128.047 64.9807 131.942C65.1229 135.838 64.4783 139.722 63.0855 143.362C61.6928 147.003 59.5804 150.325 56.8747 153.131C54.1689 155.937 50.9253 158.168 47.3377 159.692C43.7501 161.216 39.8922 162.001 35.9943 162" stroke="#171321" stroke-width="2" stroke-linecap="square"/>
<path d="M12 162H35" stroke="#171321" stroke-width="2" stroke-linecap="square"/>
<rect x="1" y="157" width="10" height="10" fill="#FF9D73" stroke="#171321" stroke-width="2" stroke-linecap="square"/>
<path d="M1 157V156H0V157H1ZM11 157H12V156H11V157ZM11 167V168H12V167H11ZM1 167H0V168H1V167ZM1 158H11V156H1V158ZM10 157V167H12V157H10ZM11 166H1V168H11V166ZM2 167V157H0V167H2Z" fill="#171321"/>
<circle cx="36" cy="133" r="16" fill="#6FDAC9" stroke="#171321" stroke-width="2" stroke-linecap="square"/>
<path d="M30.6667 133.407L33.8039 136.556L41.3334 129" stroke="#171321" stroke-width="2" stroke-linecap="square"/>
<path d="M162.397 158.897C156.328 163.956 148.519 167 140 167C131.481 167 123.672 163.956 117.603 158.897L126.657 149.843C128.157 148.343 130.192 147.5 132.314 147.5H147.686C149.808 147.5 151.843 148.343 153.343 149.843L162.397 158.897Z" fill="#AEA5D6"/>
<path d="M169.067 151.497C174.005 144.134 175.966 135.171 174.552 126.419C173.138 117.667 168.456 109.777 161.45 104.343C154.445 98.9099 145.638 96.3375 136.809 97.1458C127.98 97.9541 119.787 102.083 113.884 108.698C107.982 115.313 104.81 123.922 105.009 132.786C105.208 141.649 108.763 150.107 114.957 156.451C121.15 162.794 129.521 166.551 138.377 166.962C147.233 167.373 155.916 164.408 162.67 158.666L155.686 151.686C152.686 148.686 148.616 147 144.373 147H135.627C131.384 147 127.314 148.686 124.314 151.686L118 158" stroke="#171321" stroke-width="2" stroke-linecap="square"/>
<circle cx="140" cy="128" r="12" fill="#D0C5E2" stroke="#171321" stroke-width="2" stroke-linecap="square"/>
<path d="M80 48H53V66H115C119.418 66 123 62.4183 123 58V48H88V33H75.7059C74.4876 32.9734 73.2034 32.721 72.0764 32.2612C70.8822 31.774 69.7971 31.0599 68.883 30.1596C67.969 29.2593 67.2439 28.1906 66.7493 27.0143C66.2546 25.8381 66 24.5774 66 23.3042C66 22.031 66.2546 20.7703 66.7493 19.5941C67.2439 18.4178 67.969 17.3491 68.883 16.4488C69.7971 15.5485 70.8822 14.8344 72.0764 14.3472C73.2707 13.86 74.5507 13.6092 75.8433 13.6092C76.6882 13.6094 77.5297 13.7153 78.3476 13.9243C79.0911 11.4325 80.7031 9.27883 82.8998 7.8422C85.0966 6.40558 87.7373 5.77803 90.3575 6.06997C92.9777 6.36191 95.4094 7.55464 97.2248 9.4383C99.0402 11.322 100.123 13.7759 100.283 16.3683C101.441 16.2002 102.623 16.2702 103.752 16.574C104.882 16.8778 105.936 17.4088 106.847 18.1334C107.758 18.8581 108.507 19.7607 109.046 20.7845C109.586 21.8083 109.904 22.931 109.982 24.0819C110.059 25.2329 109.893 26.3871 109.495 27.4719C109.097 28.5567 108.475 29.5486 107.669 30.385C106.863 31.2215 105.889 31.8844 104.81 32.332C103.73 32.7795 102.569 33.0156 101.398 32.9992L96 33" stroke="#171321" stroke-width="2" stroke-linecap="square"/>
<path d="M91 57H113" stroke="#171321" stroke-width="2" stroke-linecap="square"/>
<circle cx="75" cy="57" r="3" fill="#AEA5D6" stroke="#171321" stroke-width="2" stroke-linecap="square"/>
<circle cx="64" cy="57" r="3" fill="#FF9D73" stroke="#171321" stroke-width="2" stroke-linecap="square"/>
<path d="M220 38V11C208.8 11 199.84 9 192 2C184.16 9 175.2 11 164 11V38C164 59 192 70 192 70C192 70 220 59 220 38Z" stroke="#171321" stroke-width="2" stroke-linecap="square"/>
<circle cx="192" cy="36" r="16" fill="#6FDAC9" stroke="#171321" stroke-width="2" stroke-linecap="square"/>
<path d="M186.667 36.4074L189.804 39.5556L197.333 32" stroke="#171321" stroke-width="2" stroke-linecap="square"/>
<path d="M115.788 237.296C114.249 242.45 111.307 247.075 107.291 250.653C103.275 254.231 98.343 256.622 93.0463 257.558C87.7496 258.494 82.2969 257.938 77.2978 255.953C72.2987 253.968 67.9501 250.632 64.7382 246.317C61.5263 242.003 59.5775 236.88 59.1098 231.522C58.6421 226.163 59.6739 220.78 62.0898 215.975C64.5057 211.169 68.2105 207.13 72.7901 204.309C77.3697 201.488 82.6437 199.996 88.0225 200" stroke="#171321" stroke-width="2" stroke-linecap="square"/>
<path d="M104 229C104 231.809 103.261 234.568 101.856 237.001C100.451 239.433 98.4309 241.453 95.9981 242.858C93.5653 244.262 90.8057 245.001 87.9967 245C85.1878 244.999 82.4285 244.259 79.9962 242.854C77.564 241.449 75.5445 239.428 74.1409 236.995C72.7372 234.562 71.9988 231.802 72 228.993C72.0012 226.184 72.7418 223.425 74.1474 220.993C75.5531 218.561 77.5742 216.542 80.0076 215.139" stroke="#171321" stroke-width="2" stroke-linecap="square"/>
<path d="M119 229C119 223.558 117.568 218.213 114.847 213.5L100.511 221.777C101.779 223.973 102.446 226.464 102.446 229H119Z" fill="#FF9D73" stroke="#171321" stroke-width="2" stroke-linecap="square"/>
<path d="M118.311 211.5C115.239 206.179 110.821 201.761 105.5 198.689C100.179 195.617 94.1438 194 88 194L88 217.315C90.0511 217.315 92.066 217.855 93.8423 218.881C95.6186 219.906 97.0937 221.381 98.1192 223.158L118.311 211.5Z" fill="#AEA5D6" stroke="#171321" stroke-width="2" stroke-linecap="square"/>
<circle cx="210" cy="238" r="12" fill="#6FDAC9" stroke="#171321" stroke-width="2" stroke-linecap="square"/>
<path d="M174 217V217C174 228.598 183.402 238 195 238H198" stroke="#171321" stroke-width="2" stroke-linecap="square"/>
<circle cx="174" cy="252" r="12" fill="white" stroke="#171321" stroke-width="2" stroke-linecap="square"/>
<path d="M174 218L174 240" stroke="#171321" stroke-width="2" stroke-linecap="square"/>
<circle cx="174" cy="206" r="12" fill="white" stroke="#171321" stroke-width="2" stroke-linecap="square"/>
<defs>
<clipPath id="clip0_1039_12546">
<rect width="72" height="72" fill="white" transform="translate(209 97)"/>
</clipPath>
</defs>
</svg>
